<?xml version="1.0" encoding="utf-8"?>
<!-- Generator: Adobe Illustrator 15.1.0, SVG Export Plug-In . SVG Version: 6.00 Build 0)  -->
<!DOCTYPE svg PUBLIC "-//W3C//DTD SVG 1.1//EN" "http://www.w3.org/Graphics/SVG/1.1/DTD/svg11.dtd" [
	<!ENTITY ns_extend "http://ns.adobe.com/Extensibility/1.0/">
	<!ENTITY ns_ai "http://ns.adobe.com/AdobeIllustrator/10.0/">
	<!ENTITY ns_graphs "http://ns.adobe.com/Graphs/1.0/">
	<!ENTITY ns_vars "http://ns.adobe.com/Variables/1.0/">
	<!ENTITY ns_imrep "http://ns.adobe.com/ImageReplacement/1.0/">
	<!ENTITY ns_sfw "http://ns.adobe.com/SaveForWeb/1.0/">
	<!ENTITY ns_custom "http://ns.adobe.com/GenericCustomNamespace/1.0/">
	<!ENTITY ns_adobe_xpath "http://ns.adobe.com/XPath/1.0/">
]>
<svg version="1.1" id="Camada_1" xmlns:x="&ns_extend;" xmlns:i="&ns_ai;" xmlns:graph="&ns_graphs;"
	 xmlns="http://www.w3.org/2000/svg" xmlns:xlink="http://www.w3.org/1999/xlink" x="0px" y="0px" width="40px" height="40px"
	 viewBox="0 0 40 40" enable-background="new 0 0 40 40" xml:space="preserve">
<metadata>
	<sfw  xmlns="&ns_sfw;">
		<slices></slices>
		<sliceSourceBounds  height="35.798" width="35.592" y="232.343" x="306.74" bottomLeftOrigin="true"></sliceSourceBounds>
	</sfw>
</metadata>
<rect x="2.698" y="3.24" fill="none" width="34.917" height="34.917"/>
<path fill="none" stroke="#EAEAEA" stroke-width="2" stroke-linecap="round" stroke-miterlimit="10" d="M13.173,34.199
	c-0.945,0-1.709,0.771-1.709,1.721c0,0.109,0,0.334,0,0.334h16.449c0,0,0-0.225,0-0.334c0-0.949-0.767-1.721-1.711-1.721
	C26.096,34.199,13.28,34.199,13.173,34.199z"/>
<path fill="none" stroke="#EAEAEA" stroke-width="2" stroke-linejoin="round" stroke-miterlimit="10" d="M18.318,4.731
	c0-0.757,0.614-1.371,1.372-1.371c0.754,0,1.371,0.614,1.371,1.371v29.468h-2.743V4.731z"/>
<path fill="none" stroke="#EAEAEA" stroke-width="2" stroke-linejoin="round" stroke-miterlimit="10" d="M25.172,24.604
	c0.799,1.996,2.949,3.434,5.482,3.434c2.531,0,4.683-1.438,5.479-3.434H25.172z"/>
<path fill="none" stroke="#EAEAEA" stroke-width="2" stroke-linecap="round" stroke-linejoin="round" stroke-miterlimit="10" d="
	M18.183,5.962c-1.525-0.838-2.798-2.273-4.403-2.55c-2.102-0.361-4.899,1.244-4.899,1.244"/>
<path fill="none" stroke="#EAEAEA" stroke-width="2" stroke-linecap="round" stroke-linejoin="round" stroke-miterlimit="10" d="
	M30.494,8.372c0,0-2.1-2.446-4.201-2.809c-1.636-0.28-3.344,0.686-5.093,0.946"/>
<polyline fill="none" stroke="#EAEAEA" stroke-width="2" stroke-linejoin="round" stroke-miterlimit="10" points="36.137,24.604 
	30.654,8.843 25.172,24.604 "/>
<path fill="none" stroke="#EAEAEA" stroke-width="2" stroke-linejoin="round" stroke-miterlimit="10" d="M3.24,20.493
	c0.801,1.995,2.95,3.427,5.483,3.427c2.533,0,4.684-1.432,5.482-3.427H3.24z"/>
<polyline fill="none" stroke="#EAEAEA" stroke-width="2" stroke-linejoin="round" stroke-miterlimit="10" points="14.205,20.493 
	8.723,4.731 3.24,20.493 "/>
<path fill="#11CC11" stroke="#050505" stroke-width="0.75" stroke-miterlimit="10" d="M30.168,2.812
	c-0.65,0-1.303,0.238-1.952,0.889c0,2.054,0,4.107,0,6.161c0.651-0.651,1.302-0.889,1.952-0.889c1.778,0,3.559,1.777,5.335,1.777
	c0.651,0,1.303-0.237,1.954-0.889c0-2.054,0-4.107,0-6.161c-0.651,0.651-1.303,0.889-1.954,0.889
	C33.727,4.589,31.946,2.812,30.168,2.812L30.168,2.812z"/>
<path fill="#11CC11" stroke="#050505" stroke-width="0.75" stroke-miterlimit="10" d="M27.024,2.812c-0.658,0-1.19,0.518-1.19,1.155
	v10.01c0,0.638,0.534,1.154,1.19,1.154c0.655,0,1.191-0.518,1.191-1.154V3.967C28.216,3.33,27.682,2.812,27.024,2.812z"/>
</svg>
