<?xml version="1.0" encoding="UTF-8"?>
<!DOCTYPE svg PUBLIC "-//W3C//DTD SVG 1.1//EN" "http://www.w3.org/Graphics/SVG/1.1/DTD/svg11.dtd">
<!-- Creator: CorelDRAW -->
<svg xmlns="http://www.w3.org/2000/svg" xml:space="preserve" width="210mm" height="297mm" version="1.1" style="shape-rendering:geometricPrecision; text-rendering:geometricPrecision; image-rendering:optimizeQuality; fill-rule:evenodd; clip-rule:evenodd"
viewBox="0 0 21000 29700"
 xmlns:xlink="http://www.w3.org/1999/xlink"
 xmlns:xodm="http://www.corel.com/coreldraw/odm/2003">
 <defs>
  <style type="text/css">
   <![CDATA[
    .fil1 {fill:#029344}
    .fil0 {fill:#96989B}
   ]]>
  </style>
 </defs>
 <g id="Camada_x0020_1">
  <metadata id="CorelCorpID_0Corel-Layer"/>
  <path class="fil0" d="M10501.96 14586.39c21.22,0 39.57,12.26 48.37,30.08l132.96 -30.58c4.65,-1.07 9.3,-0.29 13.19,1.84 1.59,0.67 2.91,1.66 3.94,2.88 2.58,2.44 4.49,5.64 5.35,9.35l0.01 0.07c0.27,1.15 0.42,2.31 0.46,3.45l77.46 183.41c0.49,1.17 0.76,2.36 0.83,3.53l0.09 0c-0.21,51.5 -42.01,93.18 -93.55,93.18 -51.21,0 -92.79,-41.14 -93.54,-92.17 -0.14,-1.65 0.12,-3.36 0.84,-5.02l68.21 -158.12 -112.51 25.87c-4.5,16.96 -17.06,30.64 -33.33,36.69l0 362.31 105.23 0c8.34,0 15.17,6.83 15.17,15.18l0 31.07c0,8.34 -6.83,15.17 -15.17,15.17l-250.01 0c-8.34,0 -15.17,-6.83 -15.17,-15.17l0 -31.07c0,-8.35 6.83,-15.18 15.17,-15.18l107.21 0 0 -362.31c-8.58,-3.19 -16.14,-8.51 -22.02,-15.31l-130.5 30.01 70.94 167.98c0.49,1.17 0.76,2.36 0.82,3.53l0.1 0c-0.21,51.5 -42.01,93.18 -93.55,93.18 -51.21,0 -92.8,-41.14 -93.54,-92.17 -0.14,-1.65 0.12,-3.36 0.83,-5.02l80.15 -185.79c0.42,-2.95 1.54,-5.74 3.22,-8.15 0.97,-1.99 2.59,-3.66 4.72,-4.7 1.89,-1.31 4.05,-2.29 6.42,-2.83l137.29 -31.58c0.17,-29.64 24.24,-53.61 53.91,-53.61zm0 24.99c15.97,0 28.92,12.95 28.92,28.92 0,15.97 -12.95,28.92 -28.92,28.92 -15.97,0 -28.92,-12.95 -28.92,-28.92 0,-15.97 12.95,-28.92 28.92,-28.92zm-263.68 265.68l141.12 0 -69.81 -165.31 -71.31 165.31zm382.11 -86.64l141.13 0 -69.82 -165.31 -71.31 165.31z"/>
  <path class="fil1" d="M10633.87 15003.16c1.23,-0.59 9.66,-9.42 11.31,-11.06l67.45 -67.46c1.92,-1.92 3.66,-3.65 5.58,-5.58 5.21,-5.22 10.21,-4.96 15.33,0.12l11.15 11.15c1.68,1.7 3.5,4.39 3.01,8.18 -0.47,3.65 -2.5,5.06 -4.27,6.83l-101.06 101.05c-1.71,1.71 -3.27,3.97 -6.93,4.49 -5.96,0.83 -9.32,-4.1 -13.71,-8.48 -3.83,-3.82 -7.46,-7.46 -11.28,-11.28l-39.31 -39.31c-1.65,-1.65 -4.04,-3.53 -4.89,-6.53 -1.89,-6.67 3.75,-10.28 7.54,-14.11 1.91,-1.94 3.64,-3.67 5.57,-5.58 1.71,-1.69 3.33,-4.04 6.79,-4.64 6.14,-1.07 9.37,3.7 13.92,8.3l33.8 33.91zm-0.67 -146.55l-6.99 1.26 -6.24 1.62c-2.31,0.5 -4.67,1.41 -7,2.14 -2.23,0.7 -4.55,1.8 -6.68,2.35 -0.51,0.47 -5.45,2.51 -6.1,2.55 -0.65,0.69 -8.61,4.59 -10.38,5.67 -1.67,1.03 -3.26,1.94 -4.9,3.06 -1.07,0.74 -4.13,2.96 -5.09,3.28 -0.45,0.88 -2.84,2.25 -3.77,3 -4.48,3.61 -7.15,5.99 -11.21,10.03 -3.97,3.96 -6.37,6.67 -9.93,11.06 -0.69,0.86 -2.36,3.53 -3.11,3.91l-6.23 9.84c-0.98,1.69 -1.85,3.23 -2.84,5.12 -0.48,0.92 -0.87,1.74 -1.31,2.67l-1.09 2.1c-0.05,0.07 -0.21,0.27 -0.26,0.32l-0.29 0.31c-0.04,0.7 -2.04,5.54 -2.55,6.13 -0.62,2.35 -3.07,8.48 -4.12,12.31l-0.72 1.83c0.07,1.2 -0.81,4.57 -1.28,5.77l-1.35 7.41c-0.2,0.62 -0.06,0.31 -0.29,0.65 0.3,1.46 -0.22,3.69 -0.49,5.22 -0.91,12.43 -0.73,21.35 0.87,33.62 0.38,1.64 0.98,4.17 0.9,5.81 0.58,0.63 1.76,6.31 1.98,7.55 0.65,1.26 1.37,4.65 1.97,6.27 0.5,1.35 2.19,5.4 2.18,6.48 0.65,0.68 2.92,6.33 3.22,7.19l11.34 19.43 3.31 3.98c3.26,4.01 6.46,7.85 10.05,11.44 1.27,1.28 2.42,2.06 3.68,3.49 0.81,0.93 2.68,2.5 3.79,3.4 1.23,1 7.48,5.74 7.94,6.48l9.58 5.99c4.08,2.38 7.26,3.77 10.16,5.43 1.09,0.36 2.31,1.02 3.38,1.49l3.48 1.66c0.86,0.01 5.08,1.66 6.3,2.11 1.52,0.57 5.45,1.49 6.46,2.05 1.23,0.22 2.38,0.58 3.62,0.89 0.92,0.22 2.86,0.51 3.62,1.02 1.26,-0.16 4.71,0.59 6.04,0.98l5.64 0.73c0.26,0.03 0.75,0.07 0.98,0.12l0.88 0.29c1.86,-0.42 9.63,0.64 12.7,0.43l13.21 -0.67c1.6,-0.25 4.21,-0.88 5.8,-0.56l0.65 -0.28c0.06,-0.02 0.14,-0.04 0.22,-0.06l6.92 -1.25 5.99 -1.41c1.83,-1.01 4.7,-1.56 6.91,-2.23 2.45,-0.74 4.75,-1.87 7.02,-2.47 0.55,-0.45 2.21,-1.01 2.97,-1.35 1.06,-0.47 2.17,-1.17 3.25,-1.23 0.53,-0.72 8.84,-4.83 10.29,-5.68 1.67,-0.97 3.37,-1.97 4.92,-3.04 1.46,-1.02 3.68,-2.67 5.13,-3.35l14.96 -12.94c1.22,-1.22 2.15,-2.3 3.41,-3.51l7.97 -9.57c0.5,-0.76 0.93,-1.63 1.56,-1.89l6.3 -9.89c0.99,-1.71 4.86,-9.78 5.77,-10.46 0.07,-0.75 2.12,-5.7 2.57,-6.2 0.58,-2.22 1.69,-4.49 2.41,-6.85 0.64,-2.15 1.52,-5.3 2.24,-7.13l1.49 -6.27c0.26,-1.53 0.99,-7.04 1.61,-7.86 -0.4,-3.27 1.5,-9.4 0.99,-13.38l0.18 -5.24c0.16,-2.73 -0.76,-11.38 -0.42,-12.64l-1.16 -7.47c-0.38,-1.67 -0.98,-4.13 -0.9,-5.79 -0.58,-0.63 -1.75,-6.27 -1.98,-7.53 -0.72,-1.51 -1.31,-4.5 -1.96,-6.29 -0.49,-1.34 -2.18,-5.38 -2.22,-6.45l-3.2 -7.22 -11.38 -19.38c-0.77,-0.54 -0.99,-1.16 -1.61,-1.94l-3.19 -3.98c-0.77,-0.9 -0.81,-1.12 -1.65,-2.07 -5.59,-6.3 -8.07,-8.74 -14.35,-14.33l-6.96 -5.52c-0.26,-0.19 -0.18,-0.12 -0.45,-0.35 -0.04,-0.04 -0.1,-0.09 -0.15,-0.13 -0.04,-0.04 -0.1,-0.1 -0.14,-0.14l-0.29 -0.29 -9.37 -5.96c-1.65,-0.95 -3.26,-1.92 -4.89,-2.81 -1.4,-0.76 -3.95,-1.78 -5.11,-2.62 -1.68,-0.54 -5.94,-2.28 -7.26,-3.16 -1.44,-0.24 -4.77,-1.66 -6.42,-2.27 -1.87,-0.69 -4.67,-1.21 -6.36,-1.95 -0.68,-0.14 -6.75,-1.51 -7.39,-1.96 -1.74,0.23 -4.15,-0.59 -5.97,-0.91 -8.14,-1.09 -15.8,-1.86 -24.17,-1.43 -3.43,-0.44 -11.94,0.81 -15.64,1.42z"/>
 </g>
</svg>
