<?xml version="1.0" encoding="UTF-8"?>
<!DOCTYPE svg PUBLIC "-//W3C//DTD SVG 1.1//EN" "http://www.w3.org/Graphics/SVG/1.1/DTD/svg11.dtd">
<!-- Creator: CorelDRAW (Versão de avaliação) -->
<svg xmlns="http://www.w3.org/2000/svg" xml:space="preserve" width="5.9266mm" height="5.9266mm" version="1.1" shape-rendering="geometricPrecision" text-rendering="geometricPrecision" image-rendering="optimizeQuality" fill-rule="evenodd" clip-rule="evenodd"
viewBox="0 0 592.66 592.66"
 xmlns:xlink="http://www.w3.org/1999/xlink"
 xmlns:xodm="http://www.corel.com/coreldraw/odm/2003">
 <g id="Camada_x0020_1">
  <metadata id="CorelCorpID_0Corel-Layer"/>
  <g id="_105553448140800">
   <g>
    <path fill="#F8FAFB" d="M392.02 365.66c0.19,9.38 0.01,19.01 0.01,28.43 0,5.37 0.67,24.08 -0.35,28.07l-56.73 0.04c-5.83,1.42 -3.85,12.19 -3.85,18.04 0,3.57 -0.01,7.15 -0.02,10.72 0,3.99 0.46,6.61 4.26,7.18l56.57 0.32 0.05 56.52c0.68,3.41 2.95,4.09 6.68,4.11l22 -0.01c3.93,0.01 6.52,-0.42 7.24,-4.11l0.3 -56.71 56.52 -0.04c6.16,-1.12 4.11,-12.05 4.11,-17.98 0,-5.94 2.03,-16.81 -4.11,-17.97 -9.53,-0.04 -19.08,-0.03 -28.62,-0.03 -5.34,0 -24.03,0.67 -28.03,-0.32l-0.07 -56.7c-1.31,-5.87 -12.23,-3.88 -18.06,-3.88 -6.05,0 -16.89,-2.05 -17.9,4.32z"/>
    <path fill="#55BA52" d="M334.99 421.98c2.76,-1.45 23.23,-0.56 28.25,-0.56 9.44,0 18.88,0 28.33,0l-0.07 -54.58 0.56 -1.4c1.01,-6.37 11.84,-4.31 17.9,-4.31 5.82,0 16.75,-2 18.06,3.87 1.74,3.41 0.58,48.54 0.58,56.51 7.06,0 53.81,-0.84 56.14,0.54 6.14,1.16 4.1,12.04 4.1,17.98 0,5.93 2.05,16.86 -4.1,17.98 -2.38,1.39 -49.15,0.54 -56.26,0.54l0.07 54.67 -0.63 1.54c-0.73,3.69 -3.31,4.12 -7.25,4.11l-22 0.01c-3.72,-0.02 -5.99,-0.7 -6.67,-4.12l-0.56 -1.55 0.23 -54.74 -54.91 0.06 -1.38 -0.6c-3.8,-0.57 -4.27,-3.2 -4.26,-7.19 0,-3.57 0.01,-7.14 0.01,-10.71 0,-5.85 -1.97,-16.63 3.86,-18.05zm218.8 26.49c1.41,-21.16 -2.62,-43.78 -9.83,-61.39 -7.79,-19.04 -21.24,-40.05 -36.77,-53.3 -25.68,-21.91 -51.41,-35.33 -88.53,-37.59 -82.24,-5 -147.92,58.78 -152.54,135.14 -6.55,108.15 103.24,180.54 196.79,142.71 8.61,-3.49 16.95,-7.58 23.88,-12.15 3.89,-2.57 7.23,-4.67 10.62,-7.39 3.71,-2.98 6.34,-5.29 9.77,-8.24 10.9,-9.38 22.83,-24.63 31.21,-40.82 8.38,-16.21 14.01,-35.81 15.4,-56.97z"/>
   </g>
   <path fill="#5080A5" d="M410.55 172.33c-14.55,2.34 -45.2,0.6 -61.49,0.6 -68.24,0.01 -62.81,5.9 -62.81,-62.09 0,-17.4 -1.67,-46.03 0.63,-62.08 11.2,12.19 120.32,121.89 123.67,123.57zm-155.37 369.48c-17.88,-29.98 -31.05,-60.5 -30.45,-105.02 0.52,-39.47 15.2,-78.66 33.54,-103.34 30.71,-41.32 72.51,-69.65 127.57,-76.89 27.31,-3.6 42.15,2.48 64.7,2.46 0.01,-29.12 -0.01,-58.24 0.04,-87.35 0.04,-24.32 -10.73,-28.23 -34.81,-52.33 -29.98,-30 -58.59,-58.68 -88.67,-88.61 -25.91,-25.79 -17.27,-22.08 -65.79,-22.08l-175.56 -0.03c-27.9,0.25 -45.36,15.41 -45.92,43.11 -2.91,143.63 0.24,295.18 -0.01,440.62 -0.12,65.5 55.06,50.2 126.56,50.21 21.77,0 70.17,2.57 88.8,-0.75z"/>
  </g>
 </g>
</svg>
