<svg xmlns="http://www.w3.org/2000/svg" viewBox="0 0 33.35 35.28"><defs><style>.cls-1{fill:#fff8e3;}.cls-1,.cls-2{stroke:#000;stroke-miterlimit:10;}.cls-2{fill:none;}.cls-3{fill:#fff;}</style></defs><g id="Camada_2" data-name="Camada 2"><path class="cls-1" d="M6.53,36h0V1.72h17a.32.32,0,0,1,.32.32V7h5a.29.29,0,0,1,.29.29V36Z" transform="translate(-6.03 -1.22)"/><rect x="2.42" y="29.28" width="18.72" height="0.81"/><rect x="2.42" y="26.41" width="18.72" height="0.81"/><rect x="2.42" y="23.54" width="18.72" height="0.81"/><rect x="2.42" y="20.67" width="18.72" height="0.81"/><rect x="2.42" y="17.8" width="18.72" height="0.81"/><rect x="2.42" y="14.93" width="18.72" height="0.81"/><rect x="2.42" y="12.06" width="18.72" height="0.81"/><rect x="2.42" y="9.2" width="18.72" height="0.81"/><line class="cls-2" x1="17.74" y1="0.68" x2="23.03" y2="5.94"/><rect x="24.66" y="9.16" width="15.42" height="4.43" transform="translate(-4.59 25) rotate(-45)"/><rect class="cls-3" x="35.33" y="5.79" width="0.8" height="4.43" transform="translate(-1.23 26.39) rotate(-45)"/><polygon class="cls-3" points="19.32 14.04 22.45 17.18 19.82 17.71 18.78 16.67 19.32 14.04"/><polygon points="18.78 16.67 19.82 17.71 18.51 17.98 18.78 16.67"/></g></svg>