<?xml version="1.0" encoding="UTF-8"?>
<!DOCTYPE svg PUBLIC "-//W3C//DTD SVG 1.1//EN" "http://www.w3.org/Graphics/SVG/1.1/DTD/svg11.dtd">
<!-- Creator: CorelDRAW -->
<svg xmlns="http://www.w3.org/2000/svg" xml:space="preserve" width="6.35mm" height="6.35mm" version="1.1" style="shape-rendering:geometricPrecision; text-rendering:geometricPrecision; image-rendering:optimizeQuality; fill-rule:evenodd; clip-rule:evenodd"
viewBox="0 0 635 635"
 xmlns:xlink="http://www.w3.org/1999/xlink"
 xmlns:xodm="http://www.corel.com/coreldraw/odm/2003">
 <defs>
  <style type="text/css">
   <![CDATA[
    .fil0 {fill:#CD3539}
   ]]>
  </style>
 </defs>
 <g id="Camada_x0020_1">
  <metadata id="CorelCorpID_0Corel-Layer"/>
  <path class="fil0" d="M319.46 53.89c21.22,0 39.57,12.26 48.37,30.08l132.96 -30.58c4.65,-1.07 9.3,-0.29 13.19,1.84 1.59,0.67 2.91,1.66 3.94,2.88 2.58,2.44 4.49,5.64 5.35,9.35l0.01 0.07c0.27,1.15 0.42,2.31 0.46,3.45l77.46 183.41c0.49,1.17 0.76,2.36 0.83,3.53l0.09 0c-0.21,51.5 -42.01,93.18 -93.55,93.18 -51.21,0 -92.79,-41.14 -93.54,-92.17 -0.14,-1.65 0.12,-3.36 0.84,-5.02l68.21 -158.12 -112.51 25.87c-4.5,16.96 -17.06,30.64 -33.33,36.69l0 362.31 105.23 0c8.34,0 15.17,6.83 15.17,15.18l0 31.07c0,8.34 -6.83,15.17 -15.17,15.17l-250.01 0c-8.34,0 -15.17,-6.83 -15.17,-15.17l0 -31.07c0,-8.35 6.83,-15.18 15.17,-15.18l107.21 0 0 -362.31c-8.58,-3.19 -16.14,-8.51 -22.02,-15.31l-130.5 30.01 70.94 167.98c0.49,1.17 0.76,2.36 0.82,3.53l0.1 0c-0.21,51.5 -42.01,93.18 -93.55,93.18 -51.21,0 -92.8,-41.14 -93.54,-92.17 -0.14,-1.65 0.12,-3.36 0.83,-5.02l80.15 -185.79c0.42,-2.95 1.54,-5.74 3.22,-8.15 0.97,-1.99 2.59,-3.66 4.72,-4.7 1.89,-1.31 4.05,-2.29 6.42,-2.83l137.29 -31.58c0.17,-29.64 24.24,-53.61 53.91,-53.61zm0 24.99c15.97,0 28.92,12.95 28.92,28.92 0,15.97 -12.95,28.92 -28.92,28.92 -15.97,0 -28.92,-12.95 -28.92,-28.92 0,-15.97 12.95,-28.92 28.92,-28.92zm-263.68 265.68l141.12 0 -69.81 -165.31 -71.31 165.31zm382.11 -86.64l141.13 0 -69.82 -165.31 -71.31 165.31z"/>
 </g>
</svg>
