<?xml version="1.0" encoding="UTF-8"?>
<!DOCTYPE svg PUBLIC "-//W3C//DTD SVG 1.1//EN" "http://www.w3.org/Graphics/SVG/1.1/DTD/svg11.dtd">
<!-- Creator: CorelDRAW (Versão de avaliação) -->
<svg xmlns="http://www.w3.org/2000/svg" xml:space="preserve" width="5.9266mm" height="5.9266mm" version="1.1" style="shape-rendering:geometricPrecision; text-rendering:geometricPrecision; image-rendering:optimizeQuality; fill-rule:evenodd; clip-rule:evenodd"
viewBox="0 0 592.66 592.66"
 xmlns:xlink="http://www.w3.org/1999/xlink"
 xmlns:xodm="http://www.corel.com/coreldraw/odm/2003">
 <defs>
  <style type="text/css">
   <![CDATA[
    .str0 {stroke:#373535;stroke-width:7.62;stroke-miterlimit:22.9256}
    .str1 {stroke:#F6A535;stroke-width:7.62;stroke-miterlimit:22.9256}
    .str2 {stroke:#5080A5;stroke-width:7.62;stroke-miterlimit:22.9256}
    .fil0 {fill:#96989B}
    .fil7 {fill:#858789}
    .fil1 {fill:#FFF215}
    .fil2 {fill:#F6A535}
    .fil9 {fill:#029344}
    .fil3 {fill:#5080A5}
    .fil5 {fill:#55BA52}
    .fil8 {fill:#96989B}
    .fil4 {fill:#F8FAFB}
    .fil6 {fill:#205D8C;fill-rule:nonzero;fill-opacity:0.780392}
   ]]>
  </style>
 </defs>
 <g id="Camada_x0020_1">
  <metadata id="CorelCorpID_0Corel-Layer"/>
  <path class="fil0" d="M941.43 63.58c19.55,0 36.46,11.3 44.57,27.72l122.53 -28.18c4.28,-0.98 8.57,-0.27 12.16,1.7 1.46,0.61 2.68,1.53 3.63,2.65 2.37,2.25 4.14,5.2 4.92,8.61l0.02 0.07c0.24,1.06 0.38,2.13 0.42,3.18l71.38 169.02c0.46,1.08 0.7,2.17 0.76,3.26l0.09 0c-0.19,47.45 -38.71,85.86 -86.21,85.86 -47.19,0 -85.51,-37.91 -86.2,-84.93 -0.13,-1.52 0.11,-3.11 0.77,-4.63l62.86 -145.72 -103.68 23.85c-4.15,15.63 -15.72,28.23 -30.71,33.81l0 333.89 96.97 0c7.69,0 13.98,6.29 13.98,13.98l0 28.63c0,7.69 -6.29,13.98 -13.98,13.98l-230.4 0c-7.69,0 -13.98,-6.29 -13.98,-13.98l0 -28.63c0,-7.69 6.29,-13.98 13.98,-13.98l98.8 0 0 -333.89c-7.91,-2.95 -14.87,-7.85 -20.29,-14.12l-120.27 27.66 65.38 154.81c0.45,1.07 0.7,2.17 0.76,3.25l0.09 0c-0.19,47.46 -38.72,85.87 -86.22,85.87 -47.18,0 -85.51,-37.91 -86.2,-84.94 -0.12,-1.52 0.12,-3.1 0.77,-4.63l73.86 -171.22c0.39,-2.72 1.42,-5.29 2.97,-7.5 0.89,-1.83 2.39,-3.38 4.35,-4.34 1.74,-1.2 3.73,-2.1 5.91,-2.6l126.53 -29.11c0.15,-27.31 22.33,-49.4 49.68,-49.4zm0 23.03c14.71,0 26.65,11.93 26.65,26.65 0,14.72 -11.94,26.65 -26.65,26.65 -14.72,0 -26.66,-11.93 -26.66,-26.65 0,-14.72 11.94,-26.65 26.66,-26.65zm-243 244.84l130.05 0 -64.33 -152.35 -65.72 152.35zm352.13 -79.84l130.06 0 -64.34 -152.35 -65.72 152.35z"/>
  <path class="fil1 str0" d="M1089.06 60.86l0 84.05 -84.04 0c-5.72,0 -10.08,1.53 -12.39,6.19 -0.7,1.41 -1.35,2.92 -1.35,4.92l0 27.07c0,5.71 5.15,10.91 11.11,10.91l86.67 0 0 84.44c0,4.53 0.87,6.99 2.91,9.62 1.62,2.08 5.16,3.92 8.81,3.92l26.06 0c5.98,0 11.31,-5.06 11.31,-11.11l0 -86.87 86.87 0c1.69,0 3.18,-0.54 4.42,-1.04 4.08,-1.65 6.69,-6.12 6.69,-10.28l0 -26.06c0,-7.38 -5.5,-11.71 -13.54,-11.71l-84.44 0 0 -86.67c0,-3.76 -2.17,-7.09 -4.38,-8.75 -2.9,-2.16 -5.87,-2.57 -10.77,-2.57l-18.99 0c-9.75,0 -14.95,3.6 -14.95,13.94z"/>
  <path class="fil2 str1" d="M-321.39 100.79c1.3,-0.01 2.61,-0.04 3.89,-0.03 1.28,-0.01 2.59,0.02 3.89,0.03 197.24,4.58 197.13,268.02 29.23,297.84 -10.79,1.67 -21.17,2.58 -31.07,2.73 -0.69,0 -1.36,0.04 -2.05,0.04 -0.69,0 -1.36,-0.04 -2.05,-0.04 -9.91,-0.16 -20.27,-1.05 -31.07,-2.73 -167.89,-29.83 -168.01,-293.26 29.23,-297.84zm-75.89 359.91l25.68 11.67c0.85,15.63 -0.04,43.98 6.59,56.06l1.89 0.01c0.13,0.26 0.27,0.5 0.41,0.72l45.21 -0.36 45.21 0.36c0.14,-0.22 0.28,-0.46 0.41,-0.72l1.89 -0.01c6.63,-12.08 5.74,-40.43 6.59,-56.06l25.68 -11.67 40.26 -16.13 38.85 31.93c22.1,-3.37 66.18,-47.53 69.73,-70.94l-33.13 -38.33 27.62 -63.68 56.29 -4.45 -0.27 -97.17 -57.69 -5.61 -26.25 -63.55c9.63,-11.26 32.93,-33.68 36.15,-46.74l-67.65 -66.65c-13.08,7.07 -32.82,26.52 -44.9,37.03l-64.46 -26.39c-0.99,-15.57 0.71,-45.31 -6.92,-57.88l-47.41 0.15 -47.41 -0.15c-7.63,12.57 -5.93,42.31 -6.92,57.88l-64.46 26.39c-12.08,-10.51 -31.82,-29.96 -44.9,-37.03l-67.65 66.65c3.22,13.06 26.52,35.48 36.15,46.74l-26.25 63.55 -57.69 5.61 -0.27 97.17 56.3 4.45 27.61 63.68 -33.13 38.33c3.55,23.41 47.63,67.57 69.73,70.94l38.85 -31.93 40.26 16.13z"/>
  <path class="fil3 str2" d="M-888.66 58.46c1.3,-0.01 2.61,-0.04 3.89,-0.03 1.28,-0.01 2.59,0.02 3.89,0.03 197.24,4.58 197.13,268.02 29.23,297.84 -10.79,1.67 -21.17,2.58 -31.07,2.73 -0.69,0 -1.36,0.04 -2.05,0.04 -0.69,0 -1.36,-0.04 -2.05,-0.04 -9.91,-0.16 -20.27,-1.05 -31.07,-2.73 -167.89,-29.83 -168.01,-293.26 29.23,-297.84zm-75.89 359.91l25.68 11.67c0.85,15.63 -0.04,43.98 6.59,56.06l1.89 0.01c0.13,0.26 0.27,0.5 0.41,0.72l45.21 -0.36 45.21 0.36c0.14,-0.22 0.28,-0.46 0.41,-0.72l1.89 -0.01c6.63,-12.08 5.74,-40.43 6.59,-56.06l25.68 -11.67 40.26 -16.13 38.85 31.93c22.1,-3.37 66.18,-47.53 69.73,-70.94l-33.13 -38.33 27.62 -63.68 56.29 -4.45 -0.27 -97.17 -57.69 -5.61 -26.25 -63.55c9.63,-11.26 32.93,-33.68 36.15,-46.74l-67.65 -66.65c-13.08,7.07 -32.82,26.52 -44.9,37.03l-64.46 -26.39c-0.99,-15.57 0.71,-45.31 -6.92,-57.88l-47.41 0.15 -47.41 -0.15c-7.63,12.57 -5.93,42.31 -6.92,57.88l-64.46 26.39c-12.08,-10.51 -31.82,-29.96 -44.9,-37.03l-67.65 66.65c3.22,13.06 26.52,35.48 36.15,46.74l-26.25 63.55 -57.69 5.61 -0.27 97.17 56.3 4.45 27.61 63.68 -33.13 38.33c3.55,23.41 47.63,67.57 69.73,70.94l38.85 -31.93 40.26 16.13z"/>
  <g id="_105553449063872">
   <g>
    <path class="fil4" d="M1123.9 939.16c0.19,9.38 0.01,19.01 0.01,28.43 0,5.37 0.67,24.08 -0.35,28.07l-56.73 0.04c-5.83,1.42 -3.85,12.19 -3.85,18.04 0,3.57 -0.01,7.15 -0.02,10.72 0,3.99 0.46,6.61 4.26,7.18l56.57 0.32 0.05 56.52c0.68,3.41 2.95,4.09 6.68,4.11l22 -0.01c3.93,0.01 6.52,-0.42 7.24,-4.11l0.3 -56.71 56.52 -0.04c6.16,-1.12 4.11,-12.05 4.11,-17.98 0,-5.94 2.03,-16.81 -4.11,-17.97 -9.53,-0.04 -19.08,-0.03 -28.62,-0.03 -5.34,0 -24.03,0.67 -28.03,-0.32l-0.07 -56.7c-1.31,-5.87 -12.23,-3.88 -18.06,-3.88 -6.05,0 -16.89,-2.05 -17.9,4.32z"/>
    <path class="fil5" d="M1066.87 995.48c2.76,-1.45 23.23,-0.56 28.25,-0.56 9.44,0 18.88,0 28.33,0l-0.07 -54.58 0.56 -1.4c1.01,-6.37 11.84,-4.31 17.9,-4.31 5.82,0 16.75,-2 18.06,3.87 1.74,3.41 0.58,48.54 0.58,56.51 7.06,0 53.81,-0.84 56.14,0.54 6.14,1.16 4.1,12.04 4.1,17.98 0,5.93 2.05,16.86 -4.1,17.98 -2.38,1.39 -49.15,0.54 -56.26,0.54l0.07 54.67 -0.63 1.54c-0.73,3.69 -3.31,4.12 -7.25,4.11l-22 0.01c-3.72,-0.02 -5.99,-0.7 -6.67,-4.12l-0.56 -1.55 0.23 -54.74 -54.91 0.06 -1.38 -0.6c-3.8,-0.57 -4.27,-3.2 -4.26,-7.19 0,-3.57 0.01,-7.14 0.01,-10.71 0,-5.85 -1.97,-16.63 3.86,-18.05zm218.8 26.49c1.41,-21.16 -2.62,-43.78 -9.83,-61.39 -7.79,-19.04 -21.24,-40.05 -36.77,-53.3 -25.68,-21.91 -51.41,-35.33 -88.53,-37.59 -82.24,-5 -147.92,58.78 -152.54,135.14 -6.55,108.15 103.24,180.54 196.79,142.71 8.61,-3.49 16.95,-7.58 23.88,-12.15 3.89,-2.57 7.23,-4.67 10.62,-7.39 3.71,-2.98 6.34,-5.29 9.77,-8.24 10.9,-9.38 22.83,-24.63 31.21,-40.82 8.38,-16.21 14.01,-35.81 15.4,-56.97z"/>
   </g>
   <path class="fil3" d="M1142.43 745.83c-14.55,2.34 -45.2,0.6 -61.49,0.6 -68.24,0.01 -62.81,5.9 -62.81,-62.09 0,-17.4 -1.67,-46.03 0.63,-62.08 11.2,12.19 120.32,121.89 123.67,123.57zm-155.37 369.48c-17.88,-29.98 -31.05,-60.5 -30.45,-105.02 0.52,-39.47 15.2,-78.66 33.54,-103.34 30.71,-41.32 72.51,-69.65 127.57,-76.89 27.31,-3.6 42.15,2.48 64.7,2.46 0.01,-29.12 -0.01,-58.24 0.04,-87.35 0.04,-24.32 -10.73,-28.23 -34.81,-52.33 -29.98,-30 -58.59,-58.68 -88.67,-88.61 -25.91,-25.79 -17.27,-22.08 -65.79,-22.08l-175.56 -0.03c-27.9,0.25 -45.36,15.41 -45.92,43.11 -2.91,143.63 0.24,295.18 -0.01,440.62 -0.12,65.5 55.06,50.2 126.56,50.21 21.77,0 70.17,2.57 88.8,-0.75z"/>
  </g>
  <path class="fil6" d="M-445.73 641.66c-34.24,0 -62.27,28.01 -62.27,62.27l0 498.08c0,34.24 28.01,62.27 62.27,62.27l124.52 -0.01 0 -59.15 311.3 -311.3 0 -65.38 -186.79 -186.78 -249.03 0zm217.91 46.69l171.22 171.22 -171.22 0 0 -171.22zm221.03 295.75c-3.12,0 -9.34,3.11 -12.45,6.22l-31.13 31.13 65.37 65.37 31.13 -31.13c6.23,-6.22 6.23,-18.68 0,-24.91l-40.47 -40.47c-3.12,-3.12 -6.23,-6.23 -12.45,-6.23m-62.26 56.05l-189.9 189.9 0 65.37 65.37 0 189.91 -189.9 -65.38 -65.37z"/>
  <g id="_105553449062432">
   <path class="fil3" d="M-1230.43 636.05l0 358.78c0,8.07 9.67,19.05 19.05,19.05 14.29,0 98.23,-48.38 203.62,-13.12 11.73,3.92 53.26,24.38 56.73,24.38 4.48,0 42.81,-20.16 56.71,-24.4 114.64,-35 184.98,13.14 203.64,13.14 12.27,0 19.05,-13.03 19.05,-25.4l0 -352.43c0,-11.89 -29.44,-24.41 -41.27,-25.4l0 352.43c-52.66,-25.27 -152.62,-19.3 -211.44,4.46 -11.15,4.51 -15.13,8.72 -26.69,11.41l0 -352.42c-15.57,-3.63 -31.49,-16.91 -62.76,-26.14 -52.87,-15.61 -102.41,-16.03 -155.95,1.1 -13.66,4.37 -60.69,19.77 -60.69,34.56z"/>
   <path class="fil3" d="M-912.93 905.93c12.91,-3.01 29.33,-18.02 40.37,-26.31l119.02 -90.53c7.16,-12.93 2.54,-240.92 2.54,-276.87 -12.92,3.01 -29.33,18.02 -40.38,26.31 -14.25,10.7 -25.65,19.24 -39.9,29.94 -10.13,7.6 -76.75,56.33 -79.11,60.59 -7.16,12.93 -2.54,240.92 -2.54,276.87z"/>
  </g>
  <g id="_105553449069472">
   <path class="fil3" d="M277.89 860.35c261.58,-58.06 244.42,313.32 0.43,248.7l-43.61 46.81 51.91 23.6c0.85,10.87 0.79,40.8 5.79,48.67l80.93 -0.64c5.96,-10.87 4.95,-36.85 5.82,-50.17l57.48 -23.02 33.91 27.86c19.29,-2.94 57.76,-41.48 60.86,-61.92l-28.92 -33.45 24.11 -55.58 49.13 -3.88 -0.24 -84.82 -50.35 -4.89 -22.91 -55.46c8.41,-9.84 28.75,-29.4 31.56,-40.8l-59.05 -58.18c-11.41,6.17 -28.65,23.16 -39.19,32.33l-56.26 -23.03c-0.87,-13.6 0.62,-39.55 -6.04,-50.53l-82.18 0.26c-3.9,11.1 -3.22,36.12 -3.79,49l-52.57 25.56 43.18 43.58z"/>
   <g>
    <path class="fil7" d="M126.23 1124.25c2.2,54.71 57.06,54.88 90.87,20.34 17.41,-17.79 155.24,-148.86 154.25,-160.8 -0.85,-10.23 -138.08,-141.92 -155.85,-160.33 -35.59,-36.87 -90.05,-26.86 -89.33,24.47 0.49,34.48 51.3,67.9 67.42,88.9 -27.08,1.52 -55.99,1.54 -84.86,1.24l0 93.65c28.93,-0.32 57.95,-0.34 84.95,1.21 -16.49,22.14 -68.91,55.07 -67.45,91.32z"/>
    <path class="fil7" d="M189.57 938.01c-22.52,-0.26 -44.94,-0.66 -66.36,-0.66 -48.28,0 -107.44,-7.79 -106.26,48.74 1.14,54.84 61.08,46.37 109.4,46.36 20.37,0 41.73,-0.4 63.22,-0.66l0 -93.78z"/>
   </g>
  </g>
  <g id="_105553642204576">
   <path class="fil8" d="M298.3 37.52c20.83,0 38.84,12.03 47.48,29.53l130.53 -30.02c4.56,-1.05 9.13,-0.29 12.94,1.81 1.56,0.65 2.86,1.63 3.87,2.82 2.53,2.4 4.41,5.54 5.25,9.17l0.02 0.08c0.26,1.13 0.4,2.26 0.44,3.38l76.04 180.06c0.49,1.14 0.75,2.3 0.81,3.46l0.1 0c-0.21,50.55 -41.24,91.47 -91.84,91.47 -50.27,0 -91.09,-40.39 -91.82,-90.48 -0.14,-1.62 0.12,-3.3 0.82,-4.93l66.96 -155.22 -110.45 25.4c-4.41,16.64 -16.74,30.08 -32.71,36.01l0 355.67 103.29 0c8.19,0 14.9,6.7 14.9,14.89l0 30.51c0,8.19 -6.71,14.89 -14.9,14.89l-245.41 0c-8.19,0 -14.9,-6.7 -14.9,-14.89l0 -30.51c0,-8.19 6.71,-14.89 14.9,-14.89l105.24 0 0 -355.67c-8.43,-3.13 -15.85,-8.35 -21.62,-15.03l-128.11 29.46 69.64 164.9c0.48,1.15 0.75,2.32 0.81,3.47l0.1 0c-0.21,50.56 -41.24,91.47 -91.84,91.47 -50.27,0 -91.09,-40.38 -91.82,-90.48 -0.14,-1.62 0.11,-3.3 0.81,-4.93l78.69 -182.39c0.4,-2.89 1.5,-5.62 3.15,-7.99 0.96,-1.95 2.54,-3.6 4.64,-4.62 1.85,-1.28 3.97,-2.24 6.29,-2.77l134.78 -31.01c0.16,-29.08 23.8,-52.62 52.92,-52.62zm0 24.53c15.68,0 28.39,12.72 28.39,28.4 0,15.67 -12.71,28.38 -28.39,28.38 -15.68,0 -28.39,-12.71 -28.39,-28.38 0,-15.68 12.71,-28.4 28.39,-28.4zm-258.85 260.81l138.55 0 -68.54 -162.29 -70.01 162.29zm375.1 -85.05l138.55 0 -68.54 -162.29 -70.01 162.29z"/>
   <path class="fil9" d="M427.46 446.73c1.21,-0.58 9.48,-9.25 11.1,-10.86l66.2 -66.21c1.89,-1.88 3.59,-3.58 5.48,-5.47 5.11,-5.13 10.02,-4.87 15.05,0.11l10.94 10.95c1.64,1.66 3.44,4.31 2.95,8.02 -0.46,3.59 -2.45,4.97 -4.18,6.71l-99.2 99.18c-1.68,1.68 -3.21,3.9 -6.8,4.4 -5.85,0.82 -9.14,-4.02 -13.46,-8.32 -3.76,-3.74 -7.32,-7.32 -11.07,-11.07l-38.59 -38.58c-1.61,-1.62 -3.96,-3.46 -4.79,-6.41 -1.86,-6.54 3.68,-10.09 7.4,-13.85 1.88,-1.9 3.57,-3.6 5.47,-5.48 1.67,-1.65 3.27,-3.96 6.66,-4.55 6.03,-1.05 9.19,3.63 13.66,8.15l33.18 33.28zm-0.66 -143.84l-6.87 1.24 -6.12 1.58c-2.26,0.5 -4.58,1.39 -6.87,2.11 -2.18,0.68 -4.46,1.77 -6.55,2.31 -0.5,0.45 -5.35,2.45 -5.99,2.49 -0.63,0.68 -8.45,4.52 -10.18,5.57 -1.65,1.02 -3.21,1.9 -4.81,3.01 -1.06,0.73 -4.06,2.91 -5,3.21 -0.44,0.87 -2.79,2.22 -3.71,2.95 -4.39,3.55 -7.01,5.88 -11,9.84 -3.89,3.89 -6.24,6.55 -9.74,10.86 -0.67,0.84 -2.32,3.47 -3.05,3.84l-6.12 9.66c-0.96,1.65 -1.81,3.16 -2.79,5.03 -0.46,0.89 -0.85,1.7 -1.28,2.61l-1.07 2.07c-0.05,0.06 -0.21,0.25 -0.26,0.3l-0.28 0.31c-0.04,0.69 -2.01,5.44 -2.5,6.02 -0.61,2.31 -3.02,8.32 -4.05,12.08l-0.7 1.8c0.07,1.17 -0.8,4.48 -1.26,5.65l-1.32 7.28c-0.2,0.61 -0.06,0.3 -0.29,0.64 0.3,1.43 -0.22,3.62 -0.48,5.12 -0.9,12.21 -0.72,20.96 0.86,33 0.37,1.61 0.95,4.09 0.87,5.7 0.57,0.62 1.74,6.2 1.95,7.41 0.63,1.24 1.34,4.56 1.94,6.16 0.48,1.32 2.14,5.29 2.13,6.36 0.65,0.67 2.87,6.21 3.16,7.06l11.14 19.07 3.24 3.9c3.2,3.93 6.35,7.71 9.86,11.23 1.26,1.26 2.38,2.02 3.62,3.43 0.79,0.9 2.62,2.45 3.72,3.33 1.2,0.98 7.34,5.64 7.79,6.36l9.41 5.88c4,2.34 7.12,3.71 9.96,5.33 1.08,0.36 2.27,1.01 3.32,1.46l3.42 1.64c0.84,0.01 4.98,1.62 6.18,2.07 1.49,0.56 5.35,1.45 6.34,2.01 1.21,0.21 2.34,0.57 3.56,0.87 0.89,0.21 2.81,0.5 3.55,1 1.24,-0.16 4.62,0.58 5.93,0.97l5.53 0.7c0.26,0.03 0.74,0.07 0.96,0.12l0.87 0.29c1.83,-0.42 9.45,0.63 12.46,0.42l12.97 -0.66c1.57,-0.24 4.13,-0.86 5.69,-0.54l0.64 -0.28c0.06,-0.02 0.14,-0.04 0.22,-0.05l6.79 -1.24 5.88 -1.38c1.79,-0.99 4.61,-1.53 6.78,-2.18 2.41,-0.73 4.66,-1.84 6.89,-2.43 0.54,-0.44 2.17,-0.99 2.91,-1.33 1.04,-0.45 2.14,-1.14 3.19,-1.2 0.52,-0.71 8.68,-4.74 10.1,-5.58 1.64,-0.95 3.31,-1.93 4.83,-2.98 1.43,-1 3.61,-2.62 5.04,-3.29l14.68 -12.7c1.2,-1.2 2.11,-2.26 3.35,-3.44l7.82 -9.4c0.49,-0.75 0.91,-1.6 1.53,-1.85l6.18 -9.71c0.98,-1.68 4.77,-9.6 5.67,-10.27 0.07,-0.74 2.08,-5.6 2.52,-6.08 0.57,-2.18 1.66,-4.4 2.37,-6.72 0.63,-2.12 1.48,-5.21 2.19,-7.01l1.46 -6.15c0.26,-1.5 0.98,-6.91 1.59,-7.72 -0.39,-3.2 1.47,-9.22 0.97,-13.12l0.17 -5.15c0.16,-2.68 -0.75,-11.17 -0.41,-12.41l-1.13 -7.32c-0.38,-1.65 -0.97,-4.06 -0.89,-5.69 -0.57,-0.62 -1.72,-6.15 -1.94,-7.39 -0.71,-1.48 -1.28,-4.42 -1.92,-6.17 -0.49,-1.32 -2.14,-5.28 -2.18,-6.34l-3.15 -7.08 -11.16 -19.02c-0.76,-0.53 -0.98,-1.14 -1.58,-1.91l-3.14 -3.9c-0.75,-0.89 -0.79,-1.1 -1.61,-2.03 -5.49,-6.18 -7.93,-8.58 -14.09,-14.07l-6.84 -5.42c-0.24,-0.19 -0.16,-0.12 -0.43,-0.34 -0.04,-0.04 -0.1,-0.09 -0.15,-0.13 -0.04,-0.04 -0.1,-0.1 -0.14,-0.14l-0.28 -0.28 -9.2 -5.85c-1.62,-0.94 -3.2,-1.88 -4.8,-2.76 -1.38,-0.74 -3.88,-1.74 -5.01,-2.57 -1.65,-0.52 -5.84,-2.24 -7.13,-3.1 -1.41,-0.23 -4.68,-1.63 -6.3,-2.22 -1.84,-0.68 -4.58,-1.2 -6.25,-1.93 -0.66,-0.13 -6.62,-1.47 -7.25,-1.92 -1.71,0.23 -4.07,-0.58 -5.86,-0.89 -7.99,-1.07 -15.5,-1.83 -23.72,-1.4 -3.37,-0.44 -11.72,0.79 -15.35,1.39z"/>
  </g>
 </g>
</svg>
