<?xml version="1.0" encoding="UTF-8"?>
<!DOCTYPE svg PUBLIC "-//W3C//DTD SVG 1.1//EN" "http://www.w3.org/Graphics/SVG/1.1/DTD/svg11.dtd">
<!-- Creator: CorelDRAW -->
<svg xmlns="http://www.w3.org/2000/svg" xml:space="preserve" width="6.35mm" height="6.35mm" version="1.1" style="shape-rendering:geometricPrecision; text-rendering:geometricPrecision; image-rendering:optimizeQuality; fill-rule:evenodd; clip-rule:evenodd"
viewBox="0 0 635 635"
 xmlns:xlink="http://www.w3.org/1999/xlink"
 xmlns:xodm="http://www.corel.com/coreldraw/odm/2003">
 <defs>
  <style type="text/css">
   <![CDATA[
    .fil0 {fill:#96989B}
    .fil1 {fill:#029344}
   ]]>
  </style>
 </defs>
 <g id="Camada_x0020_1">
  <metadata id="CorelCorpID_0Corel-Layer"/>
  <g id="_105553642204576">
   <path class="fil0" d="M319.45 54.95c21.13,0 39.41,12.21 48.17,29.96l132.44 -30.46c4.62,-1.06 9.26,-0.29 13.13,1.84 1.58,0.66 2.9,1.65 3.92,2.86 2.57,2.44 4.48,5.62 5.33,9.31l0.02 0.08c0.26,1.14 0.41,2.29 0.45,3.43l77.15 182.68c0.49,1.16 0.76,2.34 0.82,3.51l0.1 0c-0.21,51.29 -41.84,92.81 -93.18,92.81 -51,0 -92.42,-40.98 -93.16,-91.8 -0.14,-1.64 0.12,-3.35 0.83,-5l67.94 -157.49 -112.06 25.77c-4.48,16.89 -16.99,30.52 -33.19,36.54l0 360.86 104.8 0c8.31,0 15.11,6.8 15.11,15.11l0 30.95c0,8.31 -6.8,15.11 -15.11,15.11l-249 0c-8.31,0 -15.11,-6.8 -15.11,-15.11l0 -30.95c0,-8.31 6.8,-15.11 15.11,-15.11l106.78 0 0 -360.86c-8.55,-3.18 -16.08,-8.47 -21.93,-15.25l-129.98 29.89 70.65 167.31c0.49,1.16 0.76,2.35 0.82,3.52l0.1 0c-0.21,51.29 -41.84,92.8 -93.18,92.8 -51,0 -92.42,-40.97 -93.16,-91.8 -0.14,-1.64 0.12,-3.35 0.83,-5l79.83 -185.05c0.41,-2.94 1.53,-5.71 3.2,-8.11 0.97,-1.98 2.58,-3.65 4.71,-4.69 1.88,-1.3 4.03,-2.27 6.38,-2.81l136.75 -31.46c0.16,-29.51 24.14,-53.39 53.69,-53.39zm0 24.89c15.91,0 28.8,12.9 28.8,28.81 0,15.9 -12.89,28.8 -28.8,28.8 -15.91,0 -28.8,-12.9 -28.8,-28.8 0,-15.91 12.89,-28.81 28.8,-28.81zm-262.63 264.62l140.57 0 -69.54 -164.66 -71.03 164.66zm380.58 -86.3l140.57 0 -69.54 -164.65 -71.03 164.65z"/>
   <path class="fil1" d="M450.49 470.13c1.23,-0.58 9.62,-9.38 11.27,-11.01l67.16 -67.18c1.92,-1.91 3.65,-3.63 5.56,-5.55 5.19,-5.2 10.17,-4.94 15.27,0.11l11.1 11.11c1.67,1.69 3.49,4.37 3,8.14 -0.47,3.64 -2.49,5.04 -4.25,6.81l-100.64 100.62c-1.71,1.71 -3.26,3.96 -6.9,4.47 -5.94,0.83 -9.28,-4.08 -13.66,-8.44 -3.81,-3.8 -7.43,-7.43 -11.23,-11.23l-39.15 -39.15c-1.64,-1.64 -4.02,-3.51 -4.86,-6.5 -1.89,-6.64 3.73,-10.24 7.5,-14.05 1.91,-1.93 3.63,-3.66 5.55,-5.56 1.7,-1.68 3.32,-4.02 6.76,-4.62 6.12,-1.07 9.33,3.68 13.86,8.27l33.66 33.76zm-0.66 -145.93l-6.97 1.25 -6.21 1.61c-2.3,0.5 -4.65,1.41 -6.97,2.14 -2.22,0.69 -4.53,1.79 -6.65,2.34 -0.51,0.46 -5.43,2.49 -6.08,2.53 -0.64,0.69 -8.57,4.58 -10.33,5.65 -1.67,1.03 -3.25,1.93 -4.88,3.05 -1.07,0.74 -4.12,2.95 -5.07,3.26 -0.45,0.88 -2.83,2.25 -3.76,2.99 -4.46,3.6 -7.12,5.97 -11.16,9.99 -3.95,3.94 -6.34,6.64 -9.89,11.01 -0.68,0.86 -2.35,3.52 -3.09,3.9l-6.21 9.8c-0.97,1.68 -1.84,3.21 -2.83,5.1 -0.47,0.91 -0.86,1.73 -1.3,2.65l-1.09 2.1c-0.05,0.06 -0.21,0.26 -0.26,0.31l-0.28 0.31c-0.04,0.7 -2.04,5.52 -2.54,6.11 -0.62,2.34 -3.06,8.44 -4.11,12.26l-0.71 1.82c0.07,1.19 -0.81,4.55 -1.28,5.74l-1.34 7.38c-0.2,0.62 -0.06,0.31 -0.29,0.65 0.3,1.45 -0.22,3.67 -0.49,5.2 -0.91,12.38 -0.73,21.26 0.87,33.48 0.38,1.63 0.97,4.15 0.89,5.78 0.58,0.63 1.76,6.29 1.98,7.52 0.64,1.26 1.36,4.63 1.96,6.25 0.49,1.34 2.18,5.37 2.17,6.45 0.65,0.68 2.91,6.3 3.2,7.16l11.3 19.35 3.29 3.96c3.25,3.99 6.44,7.82 10.01,11.39 1.27,1.28 2.41,2.05 3.67,3.48 0.8,0.92 2.66,2.49 3.77,3.38 1.22,1 7.45,5.72 7.91,6.46l9.54 5.96c4.06,2.37 7.23,3.76 10.11,5.41 1.09,0.36 2.3,1.02 3.37,1.48l3.47 1.66c0.85,0.01 5.05,1.65 6.27,2.1 1.51,0.57 5.43,1.48 6.43,2.04 1.23,0.22 2.37,0.58 3.61,0.89 0.91,0.21 2.85,0.5 3.6,1.01 1.26,-0.16 4.69,0.59 6.02,0.98l5.61 0.72c0.26,0.03 0.75,0.07 0.98,0.12l0.88 0.29c1.85,-0.42 9.59,0.64 12.64,0.43l13.16 -0.67c1.59,-0.25 4.19,-0.87 5.77,-0.55l0.65 -0.28c0.06,-0.02 0.14,-0.04 0.22,-0.06l6.89 -1.25 5.97 -1.4c1.82,-1.01 4.68,-1.56 6.88,-2.22 2.44,-0.74 4.73,-1.86 6.99,-2.46 0.55,-0.45 2.2,-1.01 2.95,-1.35 1.06,-0.46 2.17,-1.16 3.24,-1.22 0.53,-0.72 8.8,-4.81 10.25,-5.66 1.66,-0.96 3.35,-1.96 4.9,-3.02 1.45,-1.02 3.66,-2.66 5.11,-3.34l14.89 -12.89c1.22,-1.21 2.14,-2.29 3.4,-3.49l7.94 -9.53c0.49,-0.76 0.92,-1.63 1.55,-1.88l6.27 -9.85c0.99,-1.71 4.84,-9.74 5.75,-10.42 0.07,-0.75 2.11,-5.68 2.56,-6.17 0.58,-2.21 1.68,-4.47 2.4,-6.82 0.64,-2.15 1.51,-5.28 2.23,-7.11l1.48 -6.24c0.26,-1.52 0.99,-7.01 1.61,-7.83 -0.4,-3.25 1.49,-9.36 0.98,-13.32l0.18 -5.22c0.16,-2.72 -0.76,-11.33 -0.42,-12.59l-1.15 -7.43c-0.38,-1.67 -0.98,-4.12 -0.9,-5.77 -0.58,-0.63 -1.74,-6.24 -1.97,-7.5 -0.72,-1.5 -1.3,-4.48 -1.95,-6.26 -0.49,-1.34 -2.17,-5.36 -2.21,-6.43l-3.19 -7.19 -11.33 -19.29c-0.77,-0.54 -0.99,-1.16 -1.6,-1.94l-3.18 -3.96c-0.77,-0.9 -0.81,-1.11 -1.64,-2.06 -5.57,-6.27 -8.04,-8.7 -14.29,-14.27l-6.94 -5.5c-0.25,-0.19 -0.17,-0.12 -0.44,-0.35 -0.04,-0.04 -0.1,-0.09 -0.15,-0.13 -0.04,-0.04 -0.1,-0.1 -0.14,-0.14l-0.29 -0.28 -9.33 -5.94c-1.65,-0.95 -3.25,-1.91 -4.87,-2.8 -1.4,-0.75 -3.94,-1.77 -5.09,-2.61 -1.67,-0.53 -5.92,-2.27 -7.23,-3.14 -1.43,-0.24 -4.75,-1.66 -6.39,-2.26 -1.87,-0.69 -4.65,-1.21 -6.34,-1.95 -0.67,-0.14 -6.72,-1.5 -7.36,-1.95 -1.73,0.23 -4.13,-0.59 -5.94,-0.9 -8.11,-1.09 -15.73,-1.86 -24.07,-1.43 -3.42,-0.44 -11.89,0.81 -15.57,1.42z"/>
  </g>
 </g>
</svg>
