<svg id="Camada_2" data-name="Camada 2" xmlns="http://www.w3.org/2000/svg" viewBox="0 0 18.93 18.93"><defs><style>.cls-1,.cls-2,.cls-3{fill:none;stroke:#3453a3;}.cls-1,.cls-3{stroke-linecap:round;}.cls-1{stroke-miterlimit:10;}.cls-2,.cls-3{stroke-linejoin:round;}</style></defs><path class="cls-1" d="M8.44,19.62a.94.94,0,0,0-.93.94v.19h9v-.19a.94.94,0,0,0-.93-.94Z" transform="translate(-2.52 -2.31)"/><path class="cls-2" d="M11.24,3.56a.75.75,0,0,1,1.5,0V19.62h-1.5Z" transform="translate(-2.52 -2.31)"/><path class="cls-2" d="M15,14.39a3.32,3.32,0,0,0,6,0Z" transform="translate(-2.52 -2.31)"/><polyline class="cls-2" points="18.44 12.08 15.45 3.49 12.46 12.08"/><path class="cls-2" d="M3,14.33A3.18,3.18,0,0,0,6,16.2a3.18,3.18,0,0,0,3-1.87Z" transform="translate(-2.52 -2.31)"/><polyline class="cls-2" points="6.48 12.02 3.49 3.43 0.5 12.02"/><line class="cls-3" x1="3.49" y1="1.93" x2="15.45" y2="1.93"/><line class="cls-3" x1="3.49" y1="3.76" x2="3.49" y2="1.93"/><line class="cls-3" x1="15.45" y1="3.49" x2="15.45" y2="1.93"/></svg>