<?xml version="1.0" encoding="UTF-8"?>
<!DOCTYPE svg PUBLIC "-//W3C//DTD SVG 1.1//EN" "http://www.w3.org/Graphics/SVG/1.1/DTD/svg11.dtd">
<!-- Creator: CorelDRAW -->
<svg xmlns="http://www.w3.org/2000/svg" xml:space="preserve" width="6.35mm" height="6.35mm" version="1.1" style="shape-rendering:geometricPrecision; text-rendering:geometricPrecision; image-rendering:optimizeQuality; fill-rule:evenodd; clip-rule:evenodd"
viewBox="0 0 635 635"
 xmlns:xlink="http://www.w3.org/1999/xlink"
 xmlns:xodm="http://www.corel.com/coreldraw/odm/2003">
 <defs>
  <style type="text/css">
   <![CDATA[
    .fil0 {fill:#CD3539}
   ]]>
  </style>
 </defs>
 <g id="Camada_x0020_1">
  <metadata id="CorelCorpID_0Corel-Layer"/>
  <path class="fil0" d="M319.45 54.68c21.15,0 39.45,12.23 48.22,30l132.56 -30.49c4.63,-1.07 9.27,-0.29 13.15,1.83 1.58,0.66 2.91,1.66 3.93,2.87 2.57,2.44 4.48,5.63 5.33,9.32l0.02 0.07c0.26,1.15 0.41,2.3 0.45,3.44l77.23 182.86c0.49,1.16 0.76,2.35 0.82,3.52l0.1 0c-0.21,51.34 -41.89,92.89 -93.28,92.89 -51.05,0 -92.51,-41.01 -93.25,-91.88 -0.14,-1.65 0.12,-3.36 0.83,-5.01l68.01 -157.65 -112.17 25.8c-4.49,16.91 -17.01,30.55 -33.23,36.58l0 361.22 104.91 0c8.32,0 15.13,6.81 15.13,15.13l0 30.97c0,8.32 -6.81,15.13 -15.13,15.13l-249.25 0c-8.32,0 -15.13,-6.81 -15.13,-15.13l0 -30.97c0,-8.32 6.81,-15.13 15.13,-15.13l106.89 0 0 -361.22c-8.56,-3.18 -16.09,-8.49 -21.96,-15.27l-130.11 29.93 70.73 167.47c0.49,1.16 0.76,2.35 0.82,3.52l0.1 0c-0.21,51.34 -41.89,92.89 -93.28,92.89 -51.05,0 -92.51,-41.01 -93.25,-91.88 -0.14,-1.65 0.12,-3.36 0.83,-5.01l79.91 -185.23c0.42,-2.95 1.53,-5.73 3.21,-8.12 0.97,-1.99 2.58,-3.66 4.71,-4.7 1.88,-1.3 4.03,-2.27 6.39,-2.82l136.88 -31.48c0.17,-29.54 24.16,-53.45 53.75,-53.45zm0 24.92c15.92,0 28.83,12.91 28.83,28.83 0,15.93 -12.91,28.84 -28.83,28.84 -15.93,0 -28.84,-12.91 -28.84,-28.84 0,-15.92 12.91,-28.83 28.84,-28.83zm-262.89 264.88l140.7 0 -69.6 -164.82 -71.1 164.82zm380.96 -86.38l140.7 0 -69.6 -164.82 -71.1 164.82z"/>
 </g>
</svg>
