<svg id="Camada_1" data-name="Camada 1" xmlns="http://www.w3.org/2000/svg" viewBox="0 0 35.59 35.8"><defs><style>.cls-1,.cls-2,.cls-3,.cls-4{fill:none;}.cls-2,.cls-3,.cls-4{stroke:#575756;stroke-width:2px;}.cls-2,.cls-4{stroke-linecap:round;}.cls-2,.cls-5{stroke-miterlimit:10;}.cls-3,.cls-4{stroke-linejoin:round;}.cls-5{fill:#1c1;stroke:#050505;stroke-width:0.75px;}</style></defs><rect class="cls-1" x="0.46" y="0.88" width="34.92" height="34.92"/><path class="cls-2" d="M13.17,34.2a1.72,1.72,0,0,0-1.71,1.72v.33H27.91v-.33A1.71,1.71,0,0,0,26.2,34.2Z" transform="translate(-2.24 -2.36)"/><path class="cls-3" d="M18.32,4.73a1.37,1.37,0,0,1,2.74,0V34.2H18.32Z" transform="translate(-2.24 -2.36)"/><path class="cls-3" d="M25.17,24.6A5.82,5.82,0,0,0,30.65,28a5.8,5.8,0,0,0,5.48-3.44Z" transform="translate(-2.24 -2.36)"/><path class="cls-4" d="M18.18,6c-1.52-.84-2.8-2.27-4.4-2.55-2.1-.36-4.9,1.25-4.9,1.25" transform="translate(-2.24 -2.36)"/><path class="cls-4" d="M30.49,8.37s-2.1-2.44-4.2-2.81c-1.63-.28-3.34.69-5.09,1" transform="translate(-2.24 -2.36)"/><polyline class="cls-3" points="33.9 22.24 28.41 6.48 22.93 22.24"/><path class="cls-3" d="M3.24,20.49a5.81,5.81,0,0,0,5.48,3.43,5.82,5.82,0,0,0,5.49-3.43Z" transform="translate(-2.24 -2.36)"/><polyline class="cls-3" points="11.96 18.13 6.48 2.37 1 18.13"/><path class="cls-5" d="M30.17,2.81a2.68,2.68,0,0,0-2,.89V9.86a2.68,2.68,0,0,1,2-.89c1.78,0,3.56,1.78,5.33,1.78a2.7,2.7,0,0,0,2-.89V3.7a2.7,2.7,0,0,1-2,.89c-1.77,0-3.55-1.78-5.33-1.78Z" transform="translate(-2.24 -2.36)"/><path class="cls-5" d="M27,2.81A1.18,1.18,0,0,0,25.83,4V14a1.2,1.2,0,0,0,2.39,0V4A1.18,1.18,0,0,0,27,2.81Z" transform="translate(-2.24 -2.36)"/></svg>