<?xml version="1.0" encoding="UTF-8"?>
<svg xmlns="http://www.w3.org/2000/svg" xmlns:xlink="http://www.w3.org/1999/xlink" width="756px" height="799px" viewBox="0 0 378 399" version="1.1">
<g id="surface3">
<path style=" stroke:none;fill-rule:evenodd;fill:rgb(15.294118%,49.411765%,75.686275%);fill-opacity:1;" d="M 189.855469 52.976562 C 201.667969 52.976562 211.886719 59.796875 216.78125 69.710938 L 290.804688 52.699219 C 293.386719 52.105469 295.980469 52.539062 298.148438 53.726562 C 299.027344 54.09375 299.769531 54.644531 300.339844 55.320312 C 301.773438 56.683594 302.839844 58.460938 303.316406 60.523438 L 303.324219 60.566406 C 303.472656 61.207031 303.554688 61.847656 303.582031 62.480469 L 346.699219 164.503906 C 346.972656 165.152344 347.125 165.8125 347.160156 166.46875 L 347.214844 166.46875 C 347.097656 195.109375 323.824219 218.296875 295.132812 218.296875 C 266.625 218.296875 243.476562 195.414062 243.058594 167.03125 C 242.984375 166.113281 243.128906 165.15625 243.523438 164.234375 L 281.496094 76.28125 L 218.863281 90.675781 C 216.359375 100.109375 209.371094 107.71875 200.3125 111.082031 L 200.3125 312.617188 L 258.890625 312.617188 C 263.535156 312.617188 267.339844 316.414062 267.339844 321.054688 L 267.339844 338.339844 C 267.339844 342.980469 263.535156 346.777344 258.890625 346.777344 L 119.714844 346.777344 C 115.066406 346.777344 111.265625 342.980469 111.265625 338.339844 L 111.265625 321.054688 C 111.265625 316.414062 115.066406 312.617188 119.714844 312.617188 L 179.398438 312.617188 L 179.398438 111.082031 C 174.617188 109.304688 170.414062 106.347656 167.140625 102.5625 L 94.488281 119.261719 L 133.980469 212.699219 C 134.253906 213.34375 134.402344 214.007812 134.4375 214.660156 L 134.492188 214.660156 C 134.378906 243.304688 111.105469 266.488281 82.410156 266.488281 C 53.90625 266.488281 30.753906 243.605469 30.339844 215.222656 C 30.261719 214.304688 30.40625 213.351562 30.804688 212.429688 L 75.421875 109.082031 C 75.65625 107.441406 76.277344 105.890625 77.214844 104.550781 C 77.753906 103.445312 78.65625 102.515625 79.84375 101.933594 C 80.894531 101.207031 82.097656 100.664062 83.414062 100.363281 L 159.84375 82.796875 C 159.9375 66.3125 173.335938 52.976562 189.855469 52.976562 Z M 189.855469 66.878906 C 198.746094 66.878906 205.953125 74.082031 205.953125 82.964844 C 205.953125 91.847656 198.746094 99.050781 189.855469 99.050781 C 180.964844 99.050781 173.757812 91.847656 173.757812 82.964844 C 173.757812 74.082031 180.964844 66.878906 189.855469 66.878906 Z M 43.0625 214.660156 L 121.628906 214.660156 L 82.765625 122.707031 Z M 255.785156 166.46875 L 334.351562 166.46875 L 295.484375 74.511719 Z M 255.785156 166.46875 "/>
<path style="fill-rule:nonzero;fill:rgb(0%,65.882353%,35.294118%);fill-opacity:0.941176;stroke-width:282.22;stroke-linecap:butt;stroke-linejoin:miter;stroke:rgb(21.568627%,20.784314%,20.784314%);stroke-opacity:1;stroke-miterlimit:22.9256;" d="M 15454.428868 11597.751249 L 15283.836489 10760.648651 L 11448.299472 10760.648651 L 11448.299472 17875.089471 L 12300.84781 17875.089471 L 12300.84781 14945.747746 L 14687.280109 14945.540799 L 14857.872488 15782.643397 L 17841.067945 15782.643397 L 17841.067945 11597.544301 Z M 15454.428868 11597.751249 " transform="matrix(0.018891,0,0,0.0188756,0,0)"/>
</g>
</svg>
