<svg xmlns="http://www.w3.org/2000/svg" xmlns:xlink="http://www.w3.org/1999/xlink" viewBox="0 0 33.45 34.6"><defs><style>.cls-1{fill:none;}.cls-2{fill:url(#Gradiente_sem_nome_9);}.cls-3{fill:url(#Gradiente_sem_nome_12);}.cls-4{fill:url(#Gradiente_sem_nome_11);}.cls-5{fill:url(#Gradiente_sem_nome_10);}</style><linearGradient id="Gradiente_sem_nome_9" x1="3.76" y1="24.42" x2="37.21" y2="24.42" gradientUnits="userSpaceOnUse"><stop offset="0" stop-color="#ffcd15"/><stop offset="1" stop-color="#ffcd15"/></linearGradient><linearGradient id="Gradiente_sem_nome_12" x1="5.99" y1="10.68" x2="29.66" y2="24.35" gradientUnits="userSpaceOnUse"><stop offset="0" stop-color="#ffcd15"/><stop offset="0.16" stop-color="#faffba"/><stop offset="0.3" stop-color="#fbf69b"/><stop offset="0.63" stop-color="#fde053"/><stop offset="0.88" stop-color="#fed226"/><stop offset="1" stop-color="#ffcd15"/></linearGradient><linearGradient id="Gradiente_sem_nome_11" x1="9.84" y1="22.15" x2="31.13" y2="22.15" gradientUnits="userSpaceOnUse"><stop offset="0" stop-color="#ffcd15"/><stop offset="0.03" stop-color="#f6c615"/><stop offset="0.39" stop-color="#947b1b"/><stop offset="0.69" stop-color="#4b431f"/><stop offset="0.9" stop-color="#1e2021"/><stop offset="1" stop-color="#0d1322"/></linearGradient><linearGradient id="Gradiente_sem_nome_10" x1="9.84" y1="16.82" x2="31.13" y2="16.82" gradientUnits="userSpaceOnUse"><stop offset="0" stop-color="#ffcd15"/><stop offset="0.12" stop-color="#eec21a"/><stop offset="0.36" stop-color="#c1a528"/><stop offset="0.69" stop-color="#79773f"/><stop offset="1" stop-color="#314955"/></linearGradient></defs><g id="Camada_2" data-name="Camada 2"><path class="cls-1" d="M31.13,20.07A10.65,10.65,0,0,1,10.67,24.2l-.54.45A11.32,11.32,0,1,0,29.57,13.33l-.66.25A10.56,10.56,0,0,1,31.13,20.07Z" transform="translate(-3.76 -2.8)"/><path class="cls-1" d="M20.49,8.76A11.33,11.33,0,0,0,10.13,24.65l.54-.45A10.64,10.64,0,0,1,28.91,13.58l.66-.25A11.27,11.27,0,0,0,20.49,8.76Z" transform="translate(-3.76 -2.8)"/><path class="cls-2" d="M37.21,14.58l-1.8-3.12q-3,.79-5.84,1.87A11.32,11.32,0,1,1,10.13,24.65C8.57,26,7.06,27.36,5.63,28.82l1.76,3.06a6.34,6.34,0,0,1,9.48,5.51h7.24a6.33,6.33,0,0,1,6.33-6.34,6.26,6.26,0,0,1,3.14.83l3.63-6.31a6.34,6.34,0,0,1,0-11Z" transform="translate(-3.76 -2.8)"/><path class="cls-3" d="M10.13,24.65A11.32,11.32,0,0,1,29.57,13.33q2.88-1.08,5.84-1.87L33.58,8.27a6.28,6.28,0,0,1-3.14.85A6.36,6.36,0,0,1,24.11,2.8H16.87A6.32,6.32,0,0,1,7.39,8.27L3.76,14.58a6.32,6.32,0,0,1,0,11l1.87,3.25C7.06,27.36,8.57,26,10.13,24.65Z" transform="translate(-3.76 -2.8)"/><path class="cls-4" d="M20.49,30.72a10.64,10.64,0,0,0,8.42-17.14l-1.71.69a8.88,8.88,0,1,1-15.08,8.78c-.49.37-1,.76-1.45,1.15A10.66,10.66,0,0,0,20.49,30.72Z" transform="translate(-3.76 -2.8)"/><path class="cls-5" d="M11.61,20.07a8.88,8.88,0,0,1,15.59-5.8l1.71-.69A10.64,10.64,0,0,0,10.67,24.2c.48-.39,1-.78,1.45-1.15A8.88,8.88,0,0,1,11.61,20.07Z" transform="translate(-3.76 -2.8)"/></g></svg>