<?xml version="1.0" encoding="UTF-8"?>
<!DOCTYPE svg PUBLIC "-//W3C//DTD SVG 1.1//EN" "http://www.w3.org/Graphics/SVG/1.1/DTD/svg11.dtd">
<!-- Creator: CorelDRAW (Versão de avaliação) -->
<svg xmlns="http://www.w3.org/2000/svg" xml:space="preserve" width="5.9266mm" height="5.9266mm" version="1.1" shape-rendering="geometricPrecision" text-rendering="geometricPrecision" image-rendering="optimizeQuality" fill-rule="evenodd" clip-rule="evenodd"
viewBox="0 0 592.66 592.66"
 xmlns:xlink="http://www.w3.org/1999/xlink"
 xmlns:xodm="http://www.corel.com/coreldraw/odm/2003">
 <g id="Camada_x0020_1">
  <metadata id="CorelCorpID_0Corel-Layer"/>
  <g id="_105553188026816">
   <g id="_105553382465472">
    <path fill="#F8FAFB" d="M390.63 364.64c0.18,9.25 0.01,18.74 0.01,28.02 0,5.3 0.65,23.73 -0.35,27.66l-55.9 0.04c-5.74,1.4 -3.8,12.02 -3.8,17.79 0,3.52 -0.01,7.04 -0.01,10.56 -0.01,3.93 0.45,6.52 4.2,7.08l55.73 0.31 0.06 55.69c0.67,3.37 2.91,4.04 6.58,4.06l21.68 -0.01c3.87,0.01 6.42,-0.41 7.14,-4.05l0.29 -55.88 55.7 -0.04c6.07,-1.11 4.05,-11.88 4.05,-17.72 0,-5.86 2,-16.58 -4.05,-17.72 -9.39,-0.04 -18.81,-0.02 -28.21,-0.02 -5.26,0 -23.68,0.65 -27.62,-0.32l-0.06 -55.88c-1.3,-5.78 -12.06,-3.81 -17.8,-3.81 -5.97,0 -16.64,-2.03 -17.64,4.24z"/>
    <path fill="#55BA52" d="M334.42 420.15c2.72,-1.43 22.9,-0.55 27.84,-0.55 9.31,0 18.62,0 27.92,0l-0.06 -53.79 0.55 -1.38c0.99,-6.27 11.67,-4.25 17.64,-4.25 5.74,0 16.5,-1.97 17.79,3.82 1.72,3.36 0.58,47.84 0.58,55.69 6.95,0 53.02,-0.83 55.32,0.53 6.05,1.14 4.04,11.86 4.04,17.71 0,5.85 2.02,16.62 -4.04,17.72 -2.35,1.38 -48.44,0.54 -55.44,0.54l0.07 53.87 -0.63 1.52c-0.71,3.63 -3.26,4.06 -7.14,4.05l-21.67 0.01c-3.68,-0.02 -5.91,-0.69 -6.59,-4.06l-0.55 -1.53 0.23 -53.94 -54.1 0.06 -1.37 -0.6c-3.75,-0.56 -4.21,-3.14 -4.2,-7.08 0.01,-3.52 0.02,-7.04 0.02,-10.56 0,-5.76 -1.95,-16.38 3.79,-17.78zm215.63 26.11c1.38,-20.86 -2.58,-43.15 -9.69,-60.5 -7.68,-18.76 -20.93,-39.47 -36.23,-52.52 -25.32,-21.6 -50.67,-34.82 -87.25,-37.05 -81.04,-4.92 -145.77,57.92 -150.32,133.17 -6.45,106.58 101.73,177.92 193.92,140.64 8.49,-3.44 16.71,-7.47 23.54,-11.98 3.83,-2.53 7.12,-4.6 10.46,-7.28 3.66,-2.93 6.25,-5.21 9.63,-8.12 10.74,-9.25 22.5,-24.27 30.76,-40.23 8.25,-15.96 13.8,-35.28 15.18,-56.13z"/>
   </g>
   <g id="_105553382444544">
    <path fill="#FED04B" d="M207.87 163.87l-13.16 21.59c-25.51,34.85 -68.87,41.45 -98.91,13.57 -11.68,-10.85 -16.86,-17.77 -24.3,-33.94 -0.18,-0.4 -0.51,-1.09 -0.66,-1.41l-1.39 -2.9c1.14,27.14 0.29,57.34 0.29,84.82 0,43.12 -7.91,99.49 14.61,101.58 11.56,1.06 38.71,-35.25 53.5,-47.82 12.78,9.03 42.53,48.11 54.55,47.82 9.26,-0.23 14.3,-7.6 15.33,-19.91l0.14 -163.4z"/>
    <path fill="#FAC02D" d="M109.05 55.59c-21.6,-2.1 -34.05,5.44 -41.17,20.94 -6.91,15.02 3.2,10.57 -10.35,21.47 -5.39,4.33 -10.17,11.06 -12.18,19.94 -2.28,10.11 -0.24,17.79 4.18,25.62 7.92,14.02 0.88,8.52 1.4,24.29 0.87,26.38 25.11,29.3 29.7,33.63 4.02,3.79 1.79,8.63 12.48,17.82 21.74,18.69 36.56,-1.11 46.62,3.53 17.65,8.13 35.25,4.18 44.71,-11.37 10.06,-16.53 -1.41,-6.26 16.96,-14.91 14.67,-6.9 22.01,-22.35 16.75,-43.64 4.9,-7.96 15.58,-14.88 13.42,-31.72 -1.74,-13.53 -10.7,-22.95 -20.35,-26.67 0.05,-45.19 -40.26,-37.54 -44.26,-38.92 -10.56,-3.65 -21.46,-31.88 -57.91,-0.01z"/>
   </g>
   <path fill="#96989B" d="M408.89 174.13c-14.34,2.31 -44.54,0.59 -60.6,0.59 -67.24,0.01 -61.89,5.82 -61.89,-61.18 0,-17.15 -1.65,-45.37 0.62,-61.18 11.04,12.01 118.56,120.11 121.87,121.77zm-153.11 364.1c-17.62,-29.54 -30.6,-59.62 -30.01,-103.49 0.51,-38.89 14.98,-77.52 33.06,-101.83 30.25,-40.72 71.44,-68.64 125.71,-75.77 26.91,-3.55 41.54,2.44 63.76,2.42 0,-28.69 -0.01,-57.39 0.03,-86.08 0.04,-23.97 -10.57,-27.82 -34.29,-51.57 -29.55,-29.56 -57.75,-57.83 -87.39,-87.32 -25.53,-25.41 -17.02,-21.75 -64.83,-21.75l-173.01 -0.04c-27.49,0.25 -44.7,15.18 -45.25,42.49 -2.86,141.54 0.24,290.88 -0.01,434.2 -0.11,64.56 54.26,49.48 124.73,49.49 21.44,0 69.14,2.53 87.5,-0.75z"/>
  </g>
 </g>
</svg>
