<?xml version="1.0" encoding="UTF-8"?>
<!DOCTYPE svg PUBLIC "-//W3C//DTD SVG 1.1//EN" "http://www.w3.org/Graphics/SVG/1.1/DTD/svg11.dtd">
<!-- Creator: CorelDRAW (Versão de avaliação) -->
<svg xmlns="http://www.w3.org/2000/svg" xml:space="preserve" width="5.9266mm" height="5.9266mm" version="1.1" shape-rendering="geometricPrecision" text-rendering="geometricPrecision" image-rendering="optimizeQuality" fill-rule="evenodd" clip-rule="evenodd"
viewBox="0 0 592.66 592.66"
 xmlns:xlink="http://www.w3.org/1999/xlink"
 xmlns:xodm="http://www.corel.com/coreldraw/odm/2003">
 <g id="Camada_x0020_1">
  <metadata id="CorelCorpID_0Corel-Layer"/>
  <g>
   <path fill="#5181A5" fill-rule="nonzero" d="M296.39 394.12c-53.99,-0.01 -97.78,-43.8 -97.78,-97.79 0,-53.99 43.79,-97.78 97.78,-97.78 53.99,0 97.78,43.79 97.78,97.78 0,53.99 -43.79,97.78 -97.78,97.78l0 0.01zm207.6 -70.69c1.12,-8.94 1.95,-17.88 1.95,-27.1 0,-9.21 -0.83,-18.43 -1.95,-27.94l58.96 -45.54c5.31,-4.2 6.7,-11.74 3.35,-17.88l-55.88 -96.68c-3.36,-6.15 -10.9,-8.66 -17.04,-6.15l-69.57 27.95c-14.53,-10.9 -29.63,-20.4 -47.22,-27.39l-10.34 -74.03c-1.12,-6.71 -6.98,-11.74 -13.97,-11.74l-111.78 0c-6.98,0 -12.85,5.03 -13.97,11.74l-10.34 74.03c-17.6,6.98 -32.69,16.49 -47.21,27.39l-69.57 -27.95c-6.15,-2.51 -13.68,0 -17.04,6.15l-55.89 96.68c-3.63,6.14 -1.95,13.68 3.36,17.88l58.96 45.54c-1.12,9.51 -1.96,18.73 -1.96,27.94 0,9.22 0.84,18.17 1.96,27.1l-58.96 46.38c-5.31,4.19 -6.98,11.73 -3.36,17.88l55.89 96.68c3.36,6.14 10.89,8.38 17.04,6.14l69.57 -28.21c14.53,11.17 29.62,20.67 47.21,27.65l10.34 74.04c1.12,6.71 6.98,11.73 13.97,11.73l111.77 0.01c6.98,0 12.85,-5.02 13.97,-11.73l10.34 -74.03c17.6,-7.27 32.7,-16.49 47.22,-27.66l69.57 28.21c6.14,2.24 13.68,0 17.04,-6.14l55.88 -96.68c3.36,-6.15 1.96,-13.69 -3.36,-17.88l-58.94 -46.39z"/>
  </g>
 </g>
</svg>
