<svg xmlns="http://www.w3.org/2000/svg" xmlns:xlink="http://www.w3.org/1999/xlink" viewBox="0 0 37.34 24.8"><defs><style>.cls-1{fill:none;}.cls-2{fill:#3453a3;stroke:#000;stroke-miterlimit:10;stroke-width:2px;}.cls-3{fill:url(#Gradiente_sem_nome_30);}.cls-4{fill:url(#Gradiente_sem_nome_29);}</style><linearGradient id="Gradiente_sem_nome_30" x1="14.84" y1="23.61" x2="38.82" y2="23.61" gradientUnits="userSpaceOnUse"><stop offset="0" stop-color="#3453a3"/><stop offset="1" stop-color="#3453a3"/></linearGradient><linearGradient id="Gradiente_sem_nome_29" x1="16.44" y1="13.76" x2="33.41" y2="23.56" gradientUnits="userSpaceOnUse"><stop offset="0" stop-color="#3453a3"/><stop offset="0.16" stop-color="#3453a3"/><stop offset="0.99" stop-color="#3453a3"/></linearGradient><symbol id="Arrow_28" data-name="Arrow 28" viewBox="0 0 48.13 33.75"><rect class="cls-1" x="1" y="1" width="45.72" height="31.75"/><polygon class="cls-2" points="1 12.11 28.49 12.11 17.38 1 30.84 1 46.72 16.88 30.84 32.75 17.38 32.75 28.49 21.64 1 21.64 1 12.11"/></symbol></defs><g id="Camada_2" data-name="Camada 2"><path class="cls-1" d="M34.46,20.49a7.63,7.63,0,0,1-14.66,3l-.39.33a8.11,8.11,0,1,0,13.94-8.12l-.48.18A7.55,7.55,0,0,1,34.46,20.49Z" transform="translate(-1.48 -8.11)"/><path class="cls-1" d="M26.83,12.38a8.12,8.12,0,0,0-7.42,11.4l.39-.33a7.49,7.49,0,0,1-.6-3,7.63,7.63,0,0,1,13.67-4.65l.48-.18A8.11,8.11,0,0,0,26.83,12.38Z" transform="translate(-1.48 -8.11)"/><path class="cls-3" d="M38.82,16.56l-1.29-2.24c-1.41.38-2.81.83-4.18,1.34a8.12,8.12,0,1,1-13.94,8.12,43.47,43.47,0,0,0-3.23,3L17.44,29a4.56,4.56,0,0,1,6.8,3.95h5.19A4.55,4.55,0,0,1,36.22,29l2.6-4.53a4.54,4.54,0,0,1,0-7.87Z" transform="translate(-1.48 -8.11)"/><path class="cls-4" d="M19.41,23.78a8.12,8.12,0,0,1,13.94-8.12c1.37-.51,2.77-1,4.18-1.34L36.22,12a4.51,4.51,0,0,1-2.25.61,4.55,4.55,0,0,1-4.54-4.53H24.24a4.55,4.55,0,0,1-4.54,4.53A4.47,4.47,0,0,1,17.44,12l-2.6,4.52a4.54,4.54,0,0,1,0,7.89l1.34,2.33A43.47,43.47,0,0,1,19.41,23.78Z" transform="translate(-1.48 -8.11)"/><use width="48.13" height="33.75" transform="translate(0 6.42) scale(0.56 0.35)" xlink:href="#Arrow_28"/></g></svg>