<?xml version="1.0" encoding="UTF-8"?>
<!DOCTYPE svg PUBLIC "-//W3C//DTD SVG 1.1//EN" "http://www.w3.org/Graphics/SVG/1.1/DTD/svg11.dtd">
<!-- Creator: CorelDRAW (Versão de avaliação) -->
<svg xmlns="http://www.w3.org/2000/svg" xml:space="preserve" width="5.9266mm" height="5.9266mm" version="1.1" shape-rendering="geometricPrecision" text-rendering="geometricPrecision" image-rendering="optimizeQuality" fill-rule="evenodd" clip-rule="evenodd"
viewBox="0 0 592.66 592.66"
 xmlns:xlink="http://www.w3.org/1999/xlink"
 xmlns:xodm="http://www.corel.com/coreldraw/odm/2003">
 <g id="Camada_x0020_1">
  <metadata id="CorelCorpID_0Corel-Layer"/>
  <g id="_105553239948416">
   <g>
    <path fill="#5081A7" d="M287.58 393.31c0,0 -0.72,0.01 0,0 53.99,-0.75 110.39,-43 110.39,-96.98 0,-53.98 -43.79,-97.78 -97.79,-97.78 -5.97,0 -11.82,0.55 -17.49,1.57l4.89 193.19zm220.21 -69.88c1.12,-8.95 1.95,-17.88 1.95,-27.1 0,-9.21 -0.83,-18.43 -1.95,-27.93l58.96 -45.55c5.31,-4.19 6.7,-11.73 3.35,-17.88l-55.88 -96.68c-3.36,-6.14 -10.9,-8.66 -17.05,-6.14l-69.57 27.94c-14.53,-10.9 -29.62,-20.39 -47.21,-27.38l-10.34 -74.04c-1.12,-6.71 -6.98,-11.74 -13.97,-11.74l-111.77 0c-6.98,0 -12.85,5.03 -13.97,11.74l-10.34 74.04c-8.27,3.28 -15.98,7.11 -23.34,11.38l86.03 86.03 0 0 4.89 193.19 -87.29 87.29c6.26,3.47 12.79,6.61 19.71,9.35l10.34 74.04c1.12,6.71 6.98,11.73 13.97,11.73l111.76 0.01c6.98,0 12.85,-5.02 13.97,-11.73l10.34 -74.04c17.6,-7.26 32.69,-16.48 47.21,-27.65l69.57 28.21c6.15,2.24 13.69,0 17.05,-6.14l55.88 -96.68c3.36,-6.15 1.96,-13.69 -3.36,-17.88l-58.94 -46.39z"/>
   </g>
   <path fill="#BDBFC1" d="M105.76 404.56c1.71,42.56 44.39,42.69 70.69,15.83 13.55,-13.84 120.77,-115.8 120,-125.09 -0.67,-7.96 -107.42,-110.41 -121.24,-124.73 -27.69,-28.68 -70.05,-20.9 -69.49,19.04 0.38,26.82 39.9,52.82 52.44,69.16 -21.06,1.17 -43.56,1.19 -66.01,0.96l0 72.85c22.5,-0.25 45.08,-0.26 66.09,0.94 -12.84,17.23 -53.61,42.84 -52.48,71.04z"/>
   <path fill="#BDBFC1" d="M155.03 259.68c-17.51,-0.2 -34.95,-0.51 -51.62,-0.51 -37.56,0 -83.58,-6.06 -82.66,37.92 0.88,42.66 47.52,36.07 85.1,36.06 15.85,0 32.47,-0.31 49.18,-0.51l0 -72.96z"/>
  </g>
 </g>
</svg>
