<svg xmlns="http://www.w3.org/2000/svg" viewBox="0 0 35.94 24.67"><defs><style>.cls-1{fill:#fffbf0;}.cls-2{fill:#8e9198;}.cls-3{fill:#fff8e1;}</style></defs><g id="Camada_2" data-name="Camada 2"><path d="M22.75,30.25a1.16,1.16,0,0,1-1.16,1.16H18.92a1.16,1.16,0,0,1-1.16-1.16h0a1.16,1.16,0,0,1,1.16-1.17h2.67a1.16,1.16,0,0,1,1.16,1.17Z" transform="translate(-2.29 -6.74)"/><rect y="2.21" width="35.94" height="21.66"/><path class="cls-1" d="M20.26,29.57A42.47,42.47,0,0,0,3,29.57V7.63a42.47,42.47,0,0,1,17.25,0Z" transform="translate(-2.29 -6.74)"/><path class="cls-2" d="M9.35,15.79a39.87,39.87,0,0,0-4.2.44V9.92c1.4-.21,2.8-.36,4.2-.43Z" transform="translate(-2.29 -6.74)"/><path d="M17.55,10.6a42.35,42.35,0,0,0-7.2-.39V9.45a42.35,42.35,0,0,1,7.2.39Z" transform="translate(-2.29 -6.74)"/><path d="M17.55,12.12a42.36,42.36,0,0,0-7.2-.4V11a42.36,42.36,0,0,1,7.2.4Z" transform="translate(-2.29 -6.74)"/><path d="M17.55,13.63a43.41,43.41,0,0,0-7.2-.39v-.76a42.36,42.36,0,0,1,7.2.4Z" transform="translate(-2.29 -6.74)"/><path d="M17.55,15.15a42.35,42.35,0,0,0-7.2-.39V14a43.41,43.41,0,0,1,7.2.39Z" transform="translate(-2.29 -6.74)"/><path d="M17.55,16.67a42.36,42.36,0,0,0-7.2-.4v-.76a42.36,42.36,0,0,1,7.2.4Z" transform="translate(-2.29 -6.74)"/><path d="M17.55,18.18a42.53,42.53,0,0,0-12.34.08V17.5a42.18,42.18,0,0,1,12.34-.07Z" transform="translate(-2.29 -6.74)"/><path d="M17.55,19.7a42.88,42.88,0,0,0-12.34.07V19a42.53,42.53,0,0,1,12.34-.08Z" transform="translate(-2.29 -6.74)"/><path d="M17.55,21.22a42.53,42.53,0,0,0-12.34.07v-.76a42.53,42.53,0,0,1,12.34-.07Z" transform="translate(-2.29 -6.74)"/><path d="M17.55,22.73a42.53,42.53,0,0,0-12.34.08v-.76A42.53,42.53,0,0,1,17.55,22Z" transform="translate(-2.29 -6.74)"/><path d="M17.55,24.25a42.88,42.88,0,0,0-12.34.07v-.75a42.53,42.53,0,0,1,12.34-.08Z" transform="translate(-2.29 -6.74)"/><path d="M17.55,25.77a42.53,42.53,0,0,0-12.34.07v-.76A42.53,42.53,0,0,1,17.55,25Z" transform="translate(-2.29 -6.74)"/><path class="cls-3" d="M37.5,29.57a42.42,42.42,0,0,0-17.24,0V7.63a42.42,42.42,0,0,1,17.24,0Z" transform="translate(-2.29 -6.74)"/><path d="M34.8,10.6a42.88,42.88,0,0,0-12.34.07V9.92A42.52,42.52,0,0,1,34.8,9.84Z" transform="translate(-2.29 -6.74)"/><path d="M34.8,12.12a42.52,42.52,0,0,0-12.34.07v-.76a42.52,42.52,0,0,1,12.34-.07Z" transform="translate(-2.29 -6.74)"/><path d="M34.8,13.63a42.52,42.52,0,0,0-12.34.08V13a42.18,42.18,0,0,1,12.34-.07Z" transform="translate(-2.29 -6.74)"/><path d="M34.8,15.15a42.88,42.88,0,0,0-12.34.07v-.75a42.52,42.52,0,0,1,12.34-.08Z" transform="translate(-2.29 -6.74)"/><path d="M34.8,16.67a42.52,42.52,0,0,0-12.34.07V16a42.52,42.52,0,0,1,12.34-.07Z" transform="translate(-2.29 -6.74)"/><path d="M34.8,18.18a42.52,42.52,0,0,0-12.34.08V17.5a42.18,42.18,0,0,1,12.34-.07Z" transform="translate(-2.29 -6.74)"/><path d="M34.8,19.7a42.52,42.52,0,0,0-12.34.08V19a42.52,42.52,0,0,1,12.34-.08Z" transform="translate(-2.29 -6.74)"/><path d="M34.8,21.22a42.52,42.52,0,0,0-12.34.07v-.76a42.52,42.52,0,0,1,12.34-.07Z" transform="translate(-2.29 -6.74)"/><path d="M34.8,22.73a42.52,42.52,0,0,0-12.34.08v-.76A42.52,42.52,0,0,1,34.8,22Z" transform="translate(-2.29 -6.74)"/><path d="M34.8,24.25a42.88,42.88,0,0,0-12.34.07v-.75a42.52,42.52,0,0,1,12.34-.08Z" transform="translate(-2.29 -6.74)"/><path d="M34.8,25.77a42.52,42.52,0,0,0-12.34.07v-.76A42.52,42.52,0,0,1,34.8,25Z" transform="translate(-2.29 -6.74)"/></g></svg>