<?xml version="1.0" encoding="UTF-8"?>
<!DOCTYPE svg PUBLIC "-//W3C//DTD SVG 1.1//EN" "http://www.w3.org/Graphics/SVG/1.1/DTD/svg11.dtd">
<!-- Creator: CorelDRAW (Versão de avaliação) -->
<svg xmlns="http://www.w3.org/2000/svg" xml:space="preserve" width="5.9266mm" height="5.9266mm" version="1.1" shape-rendering="geometricPrecision" text-rendering="geometricPrecision" image-rendering="optimizeQuality" fill-rule="evenodd" clip-rule="evenodd"
viewBox="0 0 592.66 592.66"
 xmlns:xlink="http://www.w3.org/1999/xlink"
 xmlns:xodm="http://www.corel.com/coreldraw/odm/2003">
 <g id="Camada_x0020_1">
  <metadata id="CorelCorpID_0Corel-Layer"/>
  <g id="_105553447902112">
   <path fill="#5080A5" d="M16.93 163.7l0 358.78c0,8.07 9.67,19.05 19.05,19.05 14.29,0 98.23,-48.38 203.62,-13.12 11.73,3.92 53.26,24.38 56.73,24.38 4.48,0 42.81,-20.16 56.71,-24.4 114.64,-35 184.98,13.14 203.64,13.14 12.27,0 19.05,-13.03 19.05,-25.4l0 -352.43c0,-11.89 -29.44,-24.41 -41.27,-25.4l0 352.43c-52.66,-25.27 -152.62,-19.3 -211.44,4.46 -11.15,4.51 -15.13,8.72 -26.69,11.41l0 -352.42c-15.57,-3.63 -31.49,-16.91 -62.76,-26.14 -52.87,-15.61 -102.41,-16.03 -155.95,1.1 -13.66,4.37 -60.69,19.77 -60.69,34.56z"/>
   <path fill="#5080A5" d="M334.43 433.58c12.91,-3.01 29.33,-18.02 40.37,-26.31l119.02 -90.53c7.16,-12.93 2.54,-240.92 2.54,-276.87 -12.92,3.01 -29.33,18.02 -40.38,26.31 -14.25,10.7 -25.65,19.24 -39.9,29.94 -10.13,7.6 -76.75,56.33 -79.11,60.59 -7.16,12.93 -2.54,240.92 -2.54,276.87z"/>
  </g>
 </g>
</svg>
